<svg width="228" height="228" viewBox="0 0 228 228" fill="none" xmlns="http://www.w3.org/2000/svg">
<path d="M41.0876 228C40.4119 227.612 39.6661 227.307 39.076 226.815C38.3338 226.197 38.0405 225.293 38.0025 224.324C37.9989 224.244 38.0013 224.166 38.0013 224.086C38.0013 193.769 38.0013 163.452 38.0025 133.135C38.0025 131.107 39.279 129.563 41.2111 129.248C41.502 129.2 41.8025 129.201 42.0981 129.201C53.3188 129.199 64.5395 129.198 75.759 129.2C78.7218 129.201 80.4686 131.651 79.5246 134.465C79.0021 136.021 78.4701 137.574 77.9737 139.138C76.6769 143.222 78.1554 147.64 81.6383 150.146C85.0785 152.622 89.7525 152.613 93.1939 150.123C96.6436 147.628 98.1161 143.211 96.8324 139.156C96.3313 137.573 95.7874 136.002 95.2613 134.427C94.3351 131.655 96.0938 129.201 99.0209 129.2C108.817 129.198 118.612 129.199 128.408 129.199C128.643 129.199 128.877 129.199 129.201 129.199C129.201 128.907 129.201 128.659 129.201 128.41C129.201 118.575 129.199 108.739 129.204 98.9045C129.205 96.5747 131.003 94.8374 133.267 95.0214C133.886 95.0713 134.496 95.3029 135.098 95.4905C136.741 96.0011 138.35 96.6424 140.019 97.0354C144.079 97.989 148.255 96.1935 150.487 92.6547C152.672 89.1908 152.463 84.6272 149.972 81.3996C147.391 78.0568 143.072 76.7007 139.082 77.9915C137.464 78.514 135.856 79.0674 134.237 79.5875C131.667 80.4152 129.207 78.6399 129.206 75.9371C129.199 64.5787 129.2 53.219 129.205 41.8606C129.206 39.6566 130.823 38.0345 133.019 38.0012C133.138 37.9989 133.257 38 133.375 38C163.534 38 193.693 38.0024 223.851 37.9929C225.426 37.9929 226.671 38.532 227.491 39.9C227.71 40.267 227.834 40.6909 228.001 41.0887C228.001 102.364 228.001 163.639 228.001 224.914C227.588 225.613 227.278 226.412 226.731 226.981C226.269 227.46 225.53 227.671 224.914 228.001C163.638 228 102.363 228 41.0876 228ZM136.826 161.89C142.341 160.313 147.503 161.006 152.178 164.308C156.872 167.625 159.366 172.237 159.579 177.985C159.768 183.091 158.062 187.543 154.35 191.081C149.366 195.831 143.462 197.132 136.839 195.334C136.839 203.701 136.839 212.023 136.839 220.347C164.71 220.347 192.54 220.347 220.357 220.347C220.357 192.478 220.357 164.662 220.357 136.8C220.079 136.8 219.846 136.8 219.612 136.8C209.815 136.8 200.019 136.802 190.222 136.799C187.297 136.798 185.536 134.343 186.463 131.57C186.989 129.994 187.532 128.425 188.034 126.84C189.317 122.785 187.844 118.369 184.393 115.874C180.95 113.385 176.276 113.377 172.836 115.854C169.353 118.362 167.878 122.777 169.175 126.864C169.659 128.391 170.177 129.908 170.683 131.427C171.677 134.41 169.969 136.798 166.834 136.798C157.078 136.799 147.32 136.798 137.564 136.798C137.318 136.798 137.072 136.798 136.825 136.798C136.826 145.216 136.826 153.524 136.826 161.89ZM129.201 220.381C129.201 220.069 129.201 219.816 129.201 219.562C129.201 209.746 129.198 199.93 129.204 190.113C129.205 187.336 131.653 185.573 134.302 186.432C135.901 186.951 137.49 187.498 139.091 188.011C143.175 189.321 147.613 187.863 150.119 184.401C152.624 180.942 152.622 176.254 150.117 172.793C147.611 169.334 143.171 167.878 139.086 169.189C137.561 169.678 136.046 170.2 134.522 170.696C131.561 171.66 129.202 169.951 129.201 166.843C129.2 157.086 129.2 147.33 129.2 137.573C129.2 137.326 129.2 137.079 129.2 136.824C120.791 136.824 112.482 136.824 104.113 136.824C105.729 142.495 104.96 147.777 101.452 152.506C97.9427 157.236 93.1476 159.607 87.2528 159.587C82.2725 159.57 77.9963 157.738 74.6368 154.058C70.1125 149.1 68.8964 143.3 70.6694 136.838C62.3034 136.838 53.9815 136.838 45.6488 136.838C45.6488 164.705 45.6488 192.534 45.6488 220.381C73.5004 220.381 101.302 220.381 129.201 220.381ZM161.829 129.177C159.861 121.069 161.901 114.302 168.722 109.505C174.577 105.389 181.074 105.097 187.215 108.724C195.009 113.326 197.402 120.445 195.407 129.163C203.694 129.163 212.018 129.163 220.351 129.163C220.351 101.296 220.351 73.4659 220.351 45.6416C192.486 45.6416 164.668 45.6416 136.838 45.6416C136.838 54.0004 136.838 62.3189 136.838 70.6884C142.228 69.1505 147.285 69.7799 151.907 72.9197C156.546 76.0701 159.12 80.509 159.548 86.0997C159.911 90.8485 158.61 95.1675 155.43 98.7347C150.402 104.373 144.114 106.053 136.849 104.156C136.849 112.526 136.849 120.846 136.849 129.177C145.206 129.177 153.514 129.177 161.829 129.177Z" fill="black"/>
<path d="M95.7125 0C95.8004 0.040375 95.8847 0.09025 95.9761 0.119937C97.812 0.713687 98.7976 2.05081 98.7988 3.97219C98.8012 13.2525 98.8 22.534 98.8 31.8143C98.8 32.0874 98.8 32.3606 98.8 32.6859C105.093 30.9439 110.753 32.0411 115.67 36.2829C119.495 39.5841 121.468 43.8567 121.582 48.9024C121.716 54.8613 119.405 59.7514 114.647 63.3472C109.896 66.937 104.565 67.7457 98.8 66.1057C98.8 66.4501 98.8 66.7256 98.8 66.9999C98.8 76.2209 98.8 85.443 98.8 94.6639C98.8 97.2586 97.2622 98.8 94.6663 98.8C85.405 98.8012 76.1449 98.8012 66.8836 98.8012C66.6484 98.8012 66.4133 98.8012 66.1248 98.8012C67.9203 105.392 66.6615 111.253 62.0041 116.224C58.4689 119.997 53.9992 121.754 48.8454 121.581C43.0979 121.387 38.4786 118.908 35.1452 114.228C31.8107 109.546 31.1066 104.366 32.6954 98.8024C32.3997 98.8024 32.1658 98.8024 31.9331 98.8024C22.8499 98.8024 13.7679 98.8024 4.68469 98.8024C1.92494 98.8012 1.04856 98.2229 0 95.7125C0 64.8375 0 33.9625 0 3.0875C0.41325 2.38806 0.723187 1.58887 1.27062 1.02006C1.73256 0.5415 2.47119 0.330125 3.0875 0C33.9625 0 64.8375 0 95.7125 0ZM7.62019 91.2C7.91706 91.2 8.151 91.2 8.38494 91.2C18.1818 91.2 27.9775 91.1976 37.7744 91.2012C40.7016 91.2024 42.465 93.6534 41.5399 96.4238C41.0139 97.9996 40.47 99.5695 39.9689 101.154C38.6828 105.21 40.1506 109.615 43.6026 112.121C47.0511 114.625 51.7512 114.622 55.2081 112.113C58.6554 109.612 60.116 105.203 58.8276 101.141C58.3431 99.6134 57.8966 98.0697 57.304 96.5841C56.2459 93.9324 58.0913 91.1442 61.218 91.1703C70.9543 91.2522 80.6918 91.2 90.4281 91.2C90.6751 91.2 90.9221 91.2 91.2012 91.2C91.2012 90.8437 91.2012 90.5872 91.2012 90.3319C91.2012 80.5552 91.1988 70.7786 91.2024 61.0019C91.2036 58.1068 93.6272 56.3576 96.3882 57.2565C97.9676 57.7707 99.5398 58.3063 101.119 58.8228C102.496 59.2729 103.917 59.4367 105.341 59.2123C109.264 58.596 112.074 56.4644 113.399 52.7048C114.729 48.9309 113.999 45.4314 111.195 42.5493C108.384 39.6589 104.932 38.8514 101.059 40.0021C99.6942 40.4071 98.3582 40.9046 97.0021 41.3381C96.4392 41.5174 95.8657 41.7252 95.285 41.7762C93.0288 41.9746 91.2059 40.2337 91.2047 37.9109C91.2 28.0749 91.2024 18.2388 91.2024 8.40275C91.2024 8.15338 91.2024 7.90281 91.2024 7.65225C63.2926 7.65225 35.4623 7.65225 7.62256 7.65225C7.62019 35.5051 7.62019 63.3068 7.62019 91.2Z" fill="black"/>
<path d="M136.826 161.89C136.826 153.524 136.826 145.216 136.826 136.801C137.073 136.801 137.319 136.801 137.565 136.801C147.321 136.801 157.079 136.802 166.835 136.801C169.97 136.801 171.678 134.413 170.684 131.43C170.177 129.91 169.661 128.394 169.176 126.868C167.879 122.78 169.354 118.365 172.837 115.857C176.277 113.38 180.951 113.389 184.394 115.878C187.845 118.372 189.318 122.789 188.035 126.844C187.534 128.428 186.99 129.998 186.464 131.574C185.537 134.346 187.298 136.801 190.223 136.802C200.02 136.805 209.816 136.804 219.613 136.804C219.847 136.804 220.081 136.804 220.358 136.804C220.358 164.667 220.358 192.483 220.358 220.35C192.541 220.35 164.711 220.35 136.84 220.35C136.84 212.026 136.84 203.705 136.84 195.338C143.464 197.136 149.369 195.834 154.351 191.084C158.062 187.547 159.767 183.095 159.58 177.989C159.367 172.241 156.872 167.629 152.179 164.312C147.503 161.005 142.34 160.311 136.826 161.89Z" fill="white"/>
<path d="M129.201 220.381C101.302 220.381 73.5006 220.381 45.6489 220.381C45.6489 192.534 45.6489 164.704 45.6489 136.838C53.9828 136.838 62.3048 136.838 70.6696 136.838C68.8954 143.3 70.1114 149.1 74.637 154.058C77.9964 157.738 82.2726 159.57 87.253 159.587C93.1489 159.607 97.9441 157.236 101.452 152.506C104.96 147.777 105.729 142.495 104.113 136.824C112.484 136.824 120.792 136.824 129.2 136.824C129.2 137.079 129.2 137.326 129.2 137.573C129.2 147.33 129.2 157.086 129.201 166.843C129.201 169.951 131.561 171.66 134.523 170.696C136.046 170.2 137.56 169.678 139.086 169.189C143.172 167.878 147.611 169.334 150.117 172.793C152.622 176.253 152.624 180.942 150.119 184.401C147.614 187.862 143.175 189.321 139.091 188.011C137.49 187.498 135.901 186.949 134.302 186.432C131.655 185.573 129.205 187.336 129.204 190.113C129.198 199.929 129.201 209.745 129.201 219.562C129.201 219.816 129.201 220.069 129.201 220.381Z" fill="white"/>
<path d="M161.829 129.177C153.514 129.177 145.206 129.177 136.849 129.177C136.849 120.845 136.849 112.525 136.849 104.156C144.114 106.053 150.402 104.373 155.429 98.7347C158.61 95.1687 159.911 90.8497 159.548 86.0997C159.119 80.509 156.546 76.0701 151.907 72.9197C147.286 69.7799 142.228 69.1505 136.838 70.6884C136.838 62.32 136.838 54.0016 136.838 45.6416C164.668 45.6416 192.485 45.6416 220.351 45.6416C220.351 73.4659 220.351 101.296 220.351 129.163C212.017 129.163 203.694 129.163 195.407 129.163C197.402 120.445 195.009 113.324 187.215 108.724C181.073 105.097 174.577 105.389 168.722 109.505C161.901 114.3 159.861 121.068 161.829 129.177Z" fill="white"/>
<path d="M7.62012 91.2001C7.62012 63.3069 7.62012 35.5052 7.62012 7.65234C35.4599 7.65234 63.2901 7.65234 91.1999 7.65234C91.1999 7.90409 91.1999 8.15347 91.1999 8.40284C91.1999 18.2389 91.1976 28.075 91.2023 37.911C91.2035 40.235 93.0263 41.9747 95.2826 41.7763C95.8632 41.7253 96.4368 41.5187 96.9997 41.3382C98.3558 40.9047 99.6929 40.4072 101.056 40.0022C104.93 38.8515 108.382 39.659 111.193 42.5494C113.995 45.4315 114.727 48.931 113.397 52.7049C112.071 56.4645 109.262 58.5961 105.338 59.2124C103.914 59.4357 102.493 59.273 101.117 58.8229C99.5386 58.3064 97.9651 57.7708 96.3857 57.2566C93.6248 56.3577 91.2011 58.1057 91.1999 61.002C91.1964 70.7787 91.1987 80.5554 91.1987 90.332C91.1987 90.5874 91.1987 90.8439 91.1987 91.2001C90.9197 91.2001 90.6727 91.2001 90.4257 91.2001C80.6882 91.2001 70.9519 91.2512 61.2156 91.1704C58.0889 91.1443 56.2435 93.9325 57.3016 96.5842C57.8941 98.0698 58.3418 99.6135 58.8251 101.141C60.1136 105.203 58.6529 109.612 55.2056 112.113C51.7488 114.621 47.0487 114.625 43.6002 112.121C40.1481 109.615 38.6804 105.21 39.9664 101.154C40.4687 99.5708 41.0114 97.9997 41.5375 96.4239C42.4626 93.6535 40.6991 91.2013 37.7719 91.2013C27.9751 91.1989 18.1794 91.2001 8.38249 91.2001C8.15093 91.2001 7.91699 91.2001 7.62012 91.2001Z" fill="white"/>
</svg>
