<svg width="51" height="51" viewBox="0 0 51 51" fill="none" xmlns="http://www.w3.org/2000/svg">
<path d="M24.87 0C10.84 0 0 10.93 0 25.06C0.01 39.01 11.05 50.08 25 50.13C38.95 50.18 50.08 39.15 50.12 25.21C50.18 10.85 39.3 0 24.87 0ZM20.77 48C11.96 46.35 5.95 38.88 5.46 28.97C5.07 21.05 9.39 14.73 16.64 12.63C21.91 11.1 27.17 12.67 30.11 16.66C33.6 21.39 32.33 25.53 26.5 28.02C26.04 27.42 25.77 27.19 25.66 26.89C24.75 24.64 24.95 20.47 21.1 22.31C19.39 23.12 18.17 26.95 18.34 29.29C18.71 34.29 24.39 37.52 30.09 36.75C39.42 35.48 45.19 27.48 42.47 18.26C40.98 13.2 37.67 8.67 35.56 4.63C44.19 6.67 50.77 19.77 47.74 31.02C44.6 42.68 32.62 50.22 20.77 48Z" fill="black"/>
<path d="M47.7399 31.0199C44.5999 42.6799 32.6199 50.2199 20.7699 47.9999C11.9599 46.3499 5.94989 38.8799 5.45989 28.9699C5.06989 21.0499 9.38989 14.7299 16.6399 12.6299C21.9099 11.0999 27.1699 12.6699 30.1099 16.6599C33.5999 21.3899 32.3299 25.5299 26.4999 28.0199C26.0399 27.4199 25.7699 27.1899 25.6599 26.8899C24.7499 24.6399 24.9499 20.4699 21.0999 22.3099C19.3899 23.1199 18.1699 26.9499 18.3399 29.2899C18.7099 34.2899 24.3899 37.5199 30.0899 36.7499C39.4199 35.4799 45.1899 27.4799 42.4699 18.2599C40.9799 13.1999 37.6699 8.66988 35.5599 4.62988C44.1899 6.66988 50.7699 19.7699 47.7399 31.0199Z" fill="white"/>
</svg>
