<svg width="356" height="51" viewBox="0 0 356 51" fill="none" xmlns="http://www.w3.org/2000/svg">
<path d="M24.87 0C10.84 0 0 10.93 0 25.06C0.01 39.01 11.05 50.08 25 50.13C38.95 50.18 50.08 39.15 50.12 25.21C50.18 10.85 39.3 0 24.87 0ZM20.77 48C11.96 46.35 5.95 38.88 5.46 28.97C5.07 21.05 9.39 14.73 16.64 12.63C21.91 11.1 27.17 12.67 30.11 16.66C33.6 21.39 32.33 25.53 26.5 28.02C26.04 27.42 25.77 27.19 25.66 26.89C24.75 24.64 24.95 20.47 21.1 22.31C19.39 23.12 18.17 26.95 18.34 29.29C18.71 34.29 24.39 37.52 30.09 36.75C39.42 35.48 45.19 27.48 42.47 18.26C40.98 13.2 37.67 8.67 35.56 4.63C44.19 6.67 50.77 19.77 47.74 31.02C44.6 42.68 32.62 50.22 20.77 48Z" fill="black"/>
<path d="M47.7399 31.0199C44.5999 42.6799 32.6199 50.2199 20.7699 47.9999C11.9599 46.3499 5.94989 38.8799 5.45989 28.9699C5.06989 21.0499 9.38989 14.7299 16.6399 12.6299C21.9099 11.0999 27.1699 12.6699 30.1099 16.6599C33.5999 21.3899 32.3299 25.5299 26.4999 28.0199C26.0399 27.4199 25.7699 27.1899 25.6599 26.8899C24.7499 24.6399 24.9499 20.4699 21.0999 22.3099C19.3899 23.1199 18.1699 26.9499 18.3399 29.2899C18.7099 34.2899 24.3899 37.5199 30.0899 36.7499C39.4199 35.4799 45.1899 27.4799 42.4699 18.2599C40.9799 13.1999 37.6699 8.66988 35.5599 4.62988C44.1899 6.66988 50.7699 19.7699 47.7399 31.0199Z" fill="white"/>
<path d="M62.3542 12.6057V37.3256H55V12.6057H62.3542ZM76.4569 12.6057L69.9432 23.8162L76.4198 37.3256H68.1633L62.5643 23.6802L68.9049 12.6181H76.4569V12.6057Z" fill="black" stroke="white" stroke-miterlimit="10"/>
<path d="M88.446 30.5523V37.5604C87.8898 37.6593 87.383 37.7087 86.9257 37.7087C84.2065 37.7087 81.9446 36.8188 80.1401 35.0266C78.3355 33.2344 77.4209 30.9973 77.4209 28.3152C77.4209 25.6949 78.3355 23.4701 80.1648 21.6532C81.9941 19.8363 84.2189 18.9216 86.8392 18.9216C89.7561 18.9216 92.0674 19.7745 93.7484 21.4801C95.4293 23.1858 96.2698 25.5218 96.2698 28.4759V37.3256H89.4966V28.9579C89.4966 28.0062 89.2617 27.2399 88.8044 26.6713C88.3347 26.1028 87.7167 25.8185 86.9257 25.8185C86.2088 25.8185 85.6032 26.078 85.0841 26.5972C84.5649 27.1163 84.3054 27.7343 84.3054 28.4388C84.3054 29.1927 84.5402 29.7984 85.0099 30.2804C85.4796 30.7625 86.0729 31.0097 86.8021 31.0097C87.383 31.022 87.9392 30.8613 88.446 30.5523Z" fill="black" stroke="white" stroke-miterlimit="10"/>
<path d="M116.305 37.3256H109.532V27.1287C109.532 26.0905 109.099 25.5713 108.247 25.5713C107.406 25.5713 106.973 26.0905 106.973 27.1287V37.3256H100.2V27.2647C100.2 24.9163 100.979 22.9263 102.536 21.3195C104.094 19.7127 105.997 18.897 108.259 18.897C110.842 18.897 112.906 19.8363 114.464 21.7027C115.687 23.1612 116.293 25.2005 116.293 27.8085V37.3256H116.305Z" fill="black" stroke="white" stroke-miterlimit="10"/>
<path d="M126.28 12.6057V19.5273H129.321V26.6837H126.28C126.28 28.1174 126.503 29.1062 126.96 29.6501C127.417 30.1939 128.245 30.4658 129.444 30.4658V37.5852C129.098 37.5975 128.839 37.5975 128.666 37.5975C127.133 37.5975 125.687 37.2391 124.327 36.5346C122.968 35.8177 121.88 34.8536 121.064 33.6423C120.026 32.085 119.507 30.0209 119.507 27.45V12.6181H126.28V12.6057Z" fill="black" stroke="white" stroke-miterlimit="10"/>
<path d="M141.223 18.8845C143.782 18.8845 145.982 19.7992 147.799 21.6408C149.628 23.4824 150.543 25.6825 150.543 28.2534C150.543 30.8613 149.616 33.0861 147.762 34.9154C145.908 36.7446 143.671 37.6716 141.05 37.6716C138.43 37.6716 136.193 36.757 134.339 34.9154C132.485 33.0737 131.545 30.8613 131.545 28.2657C131.545 25.6207 132.472 23.3959 134.339 21.5913C136.193 19.7868 138.492 18.8845 141.223 18.8845ZM141.038 25.5712C140.309 25.5712 139.703 25.8308 139.196 26.3623C138.689 26.8814 138.43 27.5241 138.43 28.2904C138.43 29.0444 138.689 29.6747 139.196 30.2062C139.703 30.7377 140.321 30.9973 141.038 30.9973C141.767 30.9973 142.385 30.7377 142.892 30.2062C143.399 29.6747 143.658 29.032 143.658 28.2904C143.658 27.5241 143.399 26.8814 142.892 26.3623C142.397 25.8308 141.779 25.5712 141.038 25.5712Z" fill="black" stroke="white" stroke-miterlimit="10"/>
<path d="M161.926 18.8845C164.485 18.8845 166.685 19.7992 168.502 21.6408C170.331 23.4824 171.246 25.6825 171.246 28.2534C171.246 30.8613 170.319 33.0861 168.465 34.9154C166.611 36.7446 164.374 37.6716 161.753 37.6716C159.133 37.6716 156.896 36.757 155.042 34.9154C153.188 33.0737 152.249 30.8613 152.249 28.2657C152.249 25.6207 153.176 23.3959 155.042 21.5913C156.908 19.7868 159.207 18.8845 161.926 18.8845ZM161.753 25.5712C161.024 25.5712 160.418 25.8308 159.912 26.3623C159.405 26.8814 159.145 27.5241 159.145 28.2904C159.145 29.0444 159.405 29.6747 159.912 30.2062C160.418 30.7377 161.036 30.9973 161.753 30.9973C162.483 30.9973 163.101 30.7377 163.607 30.2062C164.114 29.6747 164.374 29.032 164.374 28.2904C164.374 27.5241 164.114 26.8814 163.607 26.3623C163.113 25.8308 162.483 25.5712 161.753 25.5712Z" fill="black" stroke="white" stroke-miterlimit="10"/>
<path d="M183.989 19.0822V26.3252C183.519 26.0656 183.086 25.9297 182.703 25.9297C181.467 25.9297 180.862 26.869 180.862 28.7601V37.3255H174.088V27.4623C174.088 24.8543 174.805 22.7779 176.227 21.2205C177.648 19.6632 179.551 18.8968 181.925 18.8968C182.456 18.8845 183.136 18.9586 183.989 19.0822Z" fill="black" stroke="white" stroke-miterlimit="10"/>
<path d="M212.466 25.2499L220.166 25.4476C219.66 29.4275 218.275 32.5051 216.026 34.6805C213.776 36.8558 210.835 37.9435 207.213 37.9435C203.53 37.9435 200.452 36.7075 197.968 34.2355C195.484 31.7635 194.248 28.7106 194.248 25.0521C194.248 21.3688 195.508 18.2788 198.042 15.7698C200.576 13.2607 203.691 12 207.399 12C211.045 12 214.085 13.236 216.52 15.6956C218.213 17.4013 219.4 19.7744 220.105 22.8149L212.231 23.3341C211.354 20.6272 209.673 19.28 207.213 19.28C205.643 19.28 204.346 19.8238 203.332 20.9115C202.319 21.9992 201.799 23.3835 201.799 25.0521C201.799 26.6712 202.306 28.0061 203.307 29.0567C204.309 30.1197 205.582 30.6388 207.114 30.6388C208.672 30.6388 209.908 30.1691 210.835 29.2421C211.749 28.3151 212.293 26.9802 212.466 25.2499Z" fill="black" stroke="white" stroke-miterlimit="10"/>
<path d="M231.686 18.8845C234.244 18.8845 236.444 19.7992 238.261 21.6408C240.09 23.4824 241.005 25.6825 241.005 28.2534C241.005 30.8613 240.078 33.0861 238.224 34.9154C236.37 36.7446 234.133 37.6716 231.513 37.6716C228.892 37.6716 226.655 36.757 224.801 34.9154C222.947 33.0737 222.008 30.8613 222.008 28.2657C222.008 25.6207 222.935 23.3959 224.801 21.5913C226.668 19.7868 228.966 18.8845 231.686 18.8845ZM231.513 25.5712C230.783 25.5712 230.178 25.8308 229.671 26.3623C229.164 26.8814 228.905 27.5241 228.905 28.2904C228.905 29.0444 229.164 29.6747 229.671 30.2062C230.178 30.7377 230.796 30.9973 231.513 30.9973C232.242 30.9973 232.86 30.7377 233.367 30.2062C233.873 29.6747 234.133 29.032 234.133 28.2904C234.133 27.5241 233.873 26.8814 233.367 26.3623C232.872 25.8308 232.242 25.5712 231.513 25.5712Z" fill="black" stroke="white" stroke-miterlimit="10"/>
<path d="M268.604 37.3258H261.831V27.5861C261.831 26.8322 261.757 26.3131 261.596 26.0288C261.436 25.7445 261.151 25.5962 260.743 25.5962C259.977 25.5962 259.606 26.2636 259.606 27.6109V37.3381H252.833V27.5985C252.833 26.8445 252.747 26.3254 252.586 26.0411C252.425 25.7569 252.141 25.6085 251.721 25.6085C250.967 25.6085 250.596 26.276 250.596 27.6232V37.3505H243.823V26.2389C243.823 24.2119 244.503 22.4938 245.874 21.0724C247.246 19.6511 248.89 18.9465 250.831 18.9465C252.833 18.9465 254.638 19.787 256.232 21.4803C258.012 19.787 259.779 18.9465 261.559 18.9465C263.821 18.9465 265.626 19.7623 266.985 21.4062C268.061 22.6916 268.592 24.5456 268.592 27.0052V37.3258H268.604Z" fill="black" stroke="white" stroke-miterlimit="10"/>
<path d="M278.95 43.9999H272.177V28.9331C272.177 26.1645 272.906 23.915 274.352 22.1846C275.18 21.1834 276.243 20.38 277.529 19.7991C278.814 19.2058 280.137 18.9092 281.484 18.9092C284.178 18.9092 286.44 19.8115 288.294 21.6284C290.148 23.4453 291.063 25.6577 291.063 28.2904C291.063 30.8489 290.148 33.0613 288.306 34.9153C286.465 36.7693 284.302 37.7087 281.793 37.7087C281.385 37.7087 280.779 37.6716 279.988 37.5851V30.1196C280.544 30.5646 281.101 30.7871 281.657 30.7871C282.361 30.7871 282.955 30.5275 283.461 30.0084C283.968 29.4893 284.215 28.8713 284.215 28.1668C284.215 27.4499 283.956 26.8443 283.437 26.3499C282.918 25.8431 282.3 25.5959 281.57 25.5959C279.828 25.5959 278.962 26.7948 278.962 29.205V43.9999H278.95Z" fill="black" stroke="white" stroke-miterlimit="10"/>
<path d="M300.803 12.6057V37.3256H294.029V12.6057H300.803Z" fill="black" stroke="white" stroke-miterlimit="10"/>
<path d="M322.506 29.3907H312.235C312.075 28.8716 312 28.3895 312 27.9569C312 27.3513 312.112 26.758 312.322 26.1771H315.758C315.511 24.8422 314.757 24.1624 313.496 24.1624C312.655 24.1624 311.963 24.5209 311.432 25.2377C310.9 25.9546 310.641 26.8816 310.641 27.994C310.641 29.1682 310.9 30.1076 311.407 30.8368C311.914 31.566 312.594 31.9245 313.422 31.9245C314.102 31.9245 314.744 31.5908 315.375 30.911L319.231 35.5459C317.426 36.955 315.436 37.6595 313.236 37.6595C310.554 37.6595 308.305 36.7572 306.488 34.965C304.671 33.1728 303.756 30.9357 303.756 28.2783C303.756 25.6333 304.671 23.3961 306.513 21.5792C308.354 19.7623 310.616 18.8477 313.298 18.8477C315.919 18.8477 318.119 19.7376 319.898 21.5174C321.678 23.2972 322.568 25.4973 322.568 28.0929C322.581 28.3895 322.556 28.8098 322.506 29.3907Z" fill="black" stroke="white" stroke-miterlimit="10"/>
<path d="M343.061 29.3907H332.79C332.629 28.8716 332.555 28.3895 332.555 27.9569C332.555 27.3513 332.666 26.758 332.877 26.1771H336.313C336.065 24.8422 335.311 24.1624 334.051 24.1624C333.21 24.1624 332.518 24.5209 331.987 25.2377C331.455 25.9546 331.196 26.8816 331.196 27.994C331.196 29.1682 331.455 30.1076 331.962 30.8368C332.469 31.566 333.148 31.9245 333.977 31.9245C334.656 31.9245 335.299 31.5908 335.929 30.911L339.786 35.5459C337.981 36.955 335.991 37.6595 333.791 37.6595C331.109 37.6595 328.86 36.7572 327.043 34.965C325.226 33.1728 324.311 30.9357 324.311 28.2783C324.311 25.6333 325.226 23.3961 327.067 21.5792C328.909 19.7623 331.171 18.8477 333.853 18.8477C336.473 18.8477 338.673 19.7376 340.453 21.5174C342.233 23.2972 343.123 25.4973 343.123 28.0929C343.135 28.3895 343.111 28.8098 343.061 29.3907Z" fill="black" stroke="white" stroke-miterlimit="10"/>
<path d="M351.898 12.6057V19.5273H354.938V26.6837H351.898C351.898 28.1174 352.12 29.1062 352.578 29.6501C353.035 30.1939 353.863 30.4658 355.062 30.4658V37.5852C354.716 37.5975 354.456 37.5975 354.283 37.5975C352.751 37.5975 351.304 37.2391 349.945 36.5346C348.585 35.8177 347.498 34.8536 346.682 33.6423C345.644 32.085 345.125 30.0209 345.125 27.45V12.6181H351.898V12.6057Z" fill="black" stroke="white" stroke-miterlimit="10"/>
</svg>
