<!-- Generator: Adobe Illustrator 23.1.0, SVG Export Plug-In  -->
<svg version="1.1" xmlns="http://www.w3.org/2000/svg" xmlns:xlink="http://www.w3.org/1999/xlink" x="0px" y="0px"
	 width="622.16px" height="621.99px" viewBox="0 0 622.16 621.99" style="enable-background:new 0 0 622.16 621.99;"
	 xml:space="preserve">
<style type="text/css">
	.st0{fill:#FFFFFF;}
</style>
<defs>
</defs>
<g>
	<path d="M265.57,621.99c-6.32,0-12.65,0-18.97,0c-0.91-0.31-1.8-0.78-2.73-0.89c-42.57-5.31-77.26-35.48-87.59-77.01
		c-2.5-10.05-3.03-20.59-4.57-31.62c-1.2,0-3.15,0-5.1,0c-46.89,0-93.77,0-140.66-0.01c-1.99,0-3.97-0.19-5.96-0.29
		C0,341.45,0,170.72,0,0c170.69,0,341.38,0,512.67,0c0,50.99,0,101.64,0,152.81c19.52-0.81,37.59,2.68,54.31,11.84
		c16.68,9.14,30.04,21.89,40.15,37.96c10.17,16.16,15.29,33.84,15.02,52.96c-0.36,25.89-8.58,49.11-25.55,68.63
		c-21.89,25.17-50.48,35.7-83.92,35.49c0,50.93,0,101.59,0,152.93c-51.35,0-102.14,0-153.14,0c0,1.67-0.01,2.66,0,3.65
		c0.47,45.25-25.62,83.68-68.01,99.31C283.22,618.63,274.24,619.9,265.57,621.99z M456.77,56.26c-133.95,0-267.27,0-400.55,0
		c0,133.54,0,266.73,0,400.3c2.28,0,4.25,0,6.22,0c44.42,0,88.84,0,133.27,0c1.33,0,2.66-0.02,3.99,0.01
		c15.4,0.34,23.32,11.39,18.59,26.02c-2.3,7.11-4.76,14.17-7.08,21.27c-2.52,7.73-3.03,15.57-1.57,23.62
		c4.65,25.69,29.98,42.62,56.33,37.51c25.02-4.85,42.24-30.49,36.69-55.41c-2.01-9.03-5.61-17.71-8.15-26.64
		c-0.98-3.43-1.86-7.23-1.37-10.67c1.43-10.07,9.33-15.84,20.94-15.83c45.25,0.01,90.51,0.07,135.76,0.12c2.11,0,4.22,0,6.93,0
		c0-2.72,0-4.83,0-6.94c0-45.42-0.05-90.84,0.03-136.26c0.03-16.21,10.84-23.97,26.24-19.05c6.96,2.22,13.88,4.58,20.81,6.89
		c8.25,2.74,16.59,3.18,25.07,1.22c25.15-5.82,41.59-30.75,36.78-55.28c-3.99-20.31-26.55-43.95-55.53-37.4
		c-9.36,2.12-18.36,5.81-27.65,8.28c-3.89,1.03-8.3,1.65-12.16,0.89c-9.05-1.8-13.57-9.07-13.57-20.46
		c-0.03-45.09-0.01-90.17-0.01-135.26C456.77,61.02,456.77,58.87,456.77,56.26z"/>
	<path class="st0" d="M456.77,56.26c0,2.61,0,4.76,0,6.92c0,45.09-0.02,90.17,0.01,135.26c0.01,11.38,4.52,18.66,13.57,20.46
		c3.86,0.77,8.27,0.14,12.16-0.89c9.3-2.47,18.29-6.16,27.65-8.28c28.98-6.56,51.55,17.09,55.53,37.4
		c4.81,24.53-11.63,49.47-36.78,55.28c-8.48,1.96-16.83,1.52-25.07-1.22c-6.93-2.3-13.85-4.66-20.81-6.89
		c-15.4-4.92-26.22,2.84-26.24,19.05c-0.08,45.42-0.03,90.84-0.03,136.26c0,2.11,0,4.22,0,6.94c-2.7,0-4.82,0-6.93,0
		c-45.25-0.04-90.51-0.11-135.76-0.12c-11.61,0-19.51,5.77-20.94,15.83c-0.49,3.43,0.4,7.24,1.37,10.67
		c2.55,8.93,6.14,17.6,8.15,26.64c5.55,24.92-11.67,50.56-36.69,55.41c-26.35,5.11-51.68-11.82-56.33-37.51
		c-1.46-8.05-0.95-15.89,1.57-23.62c2.32-7.1,4.78-14.16,7.08-21.27c4.73-14.63-3.2-25.69-18.59-26.02
		c-1.33-0.03-2.66-0.01-3.99-0.01c-44.42,0-88.84,0-133.27,0c-1.97,0-3.94,0-6.22,0c0-133.58,0-266.76,0-400.3
		C189.5,56.26,322.82,56.26,456.77,56.26z"/>
</g>
</svg>
