<svg width="50" height="50" viewBox="0 0 50 50" fill="none" xmlns="http://www.w3.org/2000/svg">
<path d="M17.1085 26.5856C16.4703 27.1335 15.8622 27.5489 15.9886 28.6206C16.1813 30.2222 15.218 31.6612 13.7248 32.2873C12.1895 32.9316 10.7264 32.7269 9.52224 31.5468C6.98144 29.0602 4.48279 26.5254 1.96607 24.0147C1.659 23.7076 1.3399 23.4186 1.0509 23.0935C-0.0388797 21.8592 -0.297777 20.4323 0.352476 18.9391C0.996708 17.4459 2.20088 16.5669 3.86264 16.6632C4.73566 16.7114 5.27152 16.4043 5.8435 15.8263C9.30549 12.3222 12.8096 8.85415 16.2716 5.35001C16.5004 5.1152 16.6449 4.68772 16.6389 4.35055C16.5727 2.45398 17.3253 1.06316 18.8787 0.352701C20.3899 -0.339698 22.0276 -0.00855046 23.3582 1.31002C26.0555 3.98328 28.7468 6.66256 31.4201 9.3599C32.6845 10.6303 32.9855 12.3463 32.2751 13.7913C31.4863 15.4048 29.9932 16.1755 28.1147 15.9708C27.2717 15.8805 27.1152 16.7114 26.495 17.0786C27.639 17.8132 28.3073 18.7043 28.1568 19.9988C28.1086 20.4142 28.0183 20.8898 27.7835 21.215C27.4283 21.7027 27.5186 21.9676 27.94 22.3288C30.511 24.5385 33.0578 26.7722 35.6106 28.9999C39.7048 32.5703 43.793 36.1467 47.8872 39.711C49.6814 41.2765 50.3557 43.2393 49.8018 45.5392C49.284 47.6947 47.8691 49.1397 45.7497 49.7418C43.5762 50.3559 41.5592 49.8863 40.0058 48.2065C38.0852 46.1233 36.2609 43.9497 34.4004 41.8123C30.3424 37.1582 26.2903 32.4981 22.2323 27.8379C22.0276 27.6031 21.8831 27.3683 21.4736 27.6151C19.8179 28.6026 18.4813 28.3256 17.3313 26.8204C17.2711 26.7481 17.1988 26.6819 17.1085 26.5856ZM14.8748 25.9112C18.5656 22.2265 22.2443 18.5598 25.8207 14.9894C23.1173 12.2559 20.3778 9.48634 17.7467 6.83114C14.0981 10.4677 10.4194 14.1344 6.74663 17.7951C9.42591 20.4684 12.1594 23.1958 14.8748 25.9112ZM33.6358 38.1215C35.153 36.6284 36.6221 35.1713 38.1033 33.7143C38.0912 33.6842 38.0792 33.636 38.0431 33.6059C34.1596 30.2101 30.2822 26.8084 26.3806 23.4307C26.2542 23.3223 25.8327 23.3644 25.6882 23.4969C24.9778 24.1411 24.3456 24.8696 23.6291 25.5139C23.1836 25.9173 23.2077 26.1882 23.593 26.6217C25.8147 29.1384 28.0123 31.6852 30.2159 34.22C31.3719 35.5326 32.5219 36.8451 33.6358 38.1215ZM37.5072 42.5047C37.6818 42.7395 37.736 42.8178 37.7962 42.8901C38.9101 44.1785 40.0119 45.479 41.1378 46.7494C42.661 48.4714 45.2199 48.5978 46.8636 47.0625C48.5193 45.5152 48.5916 42.9623 46.9238 41.3487C45.6474 40.1205 44.2686 38.9946 42.9079 37.8566C42.7815 37.7483 42.3961 37.7663 42.2637 37.8747C41.7218 38.3443 41.2341 38.8802 40.7223 39.3799C39.6687 40.4215 38.603 41.4511 37.5072 42.5047ZM20.8174 1.86394C19.6553 1.87598 19.0232 2.25529 18.6679 3.01994C18.3187 3.77857 18.3729 4.56128 18.969 5.16337C21.7687 7.99919 24.5804 10.823 27.4223 13.6167C28.2592 14.4415 29.4693 14.3452 30.2521 13.5143C30.9926 12.7316 30.9806 11.5455 30.1678 10.7266C27.4463 7.98113 24.7189 5.24766 21.9613 2.53827C21.5941 2.17702 21.0462 2.00242 20.8174 1.86394ZM1.85167 20.7935C2.02025 21.0705 2.25507 21.6605 2.65846 22.076C5.28356 24.7492 7.94478 27.3864 10.594 30.0295C11.5392 30.9748 12.7554 31.035 13.5984 30.18C14.4232 29.3431 14.3751 28.151 13.4659 27.2238C12.8759 26.6217 12.2738 26.0377 11.6777 25.4416C9.55235 23.3223 7.43301 21.1969 5.30764 19.0776C4.65739 18.4333 3.88672 18.2888 3.06186 18.638C2.28517 18.9692 1.91188 19.6134 1.85167 20.7935ZM19.7336 26.4712C20.1069 26.2304 20.4381 26.0919 20.6789 25.8571C22.4069 24.1592 24.1108 22.4432 25.8207 20.7273C26.4228 20.1252 26.489 19.487 26.0194 19.0354C25.5558 18.5959 24.9838 18.6561 24.3817 19.2462C22.9849 20.631 21.6001 22.0218 20.2153 23.4126C19.8119 23.822 19.3362 24.1833 19.0352 24.6589C18.8486 24.9479 18.8124 25.4416 18.9208 25.7728C19.0111 26.0437 19.4145 26.2123 19.7336 26.4712ZM41.1137 36.2671C40.7284 35.9239 40.3731 35.5627 39.9637 35.2797C39.8192 35.1773 39.4399 35.1894 39.3195 35.3038C37.9588 36.6224 36.6161 37.965 35.2975 39.3197C35.1831 39.4401 35.129 39.7833 35.2132 39.9097C35.5263 40.3493 35.9117 40.7346 36.2669 41.144C37.9046 39.4943 39.476 37.9229 41.1137 36.2671Z" fill="black"/>
<path d="M24.8513 43.5403C25.5858 44.4795 26.4288 45.2321 26.8322 46.1774C27.2175 47.0805 27.1934 48.1763 27.2295 49.1939C27.2356 49.4347 26.784 49.7478 26.4829 49.9164C26.2782 50.0307 25.9652 49.9585 25.7002 49.9585C17.5962 49.9585 9.49811 49.9585 1.39404 49.9645C0.21997 49.9645 0.0513857 49.7598 0.0092397 48.5677C-0.0569897 46.641 0.629387 45.1057 2.23696 43.9918C2.36942 43.9015 2.45371 43.5222 2.37544 43.3777C1.12912 41.0717 2.76077 38.2841 5.6568 38.3202C10.919 38.3804 16.1873 38.4466 21.4495 38.3081C24.195 38.2359 26.4047 40.7887 24.8513 43.5403ZM1.96 48.0619C9.76905 48.0619 17.5781 48.0619 25.4474 48.0619C25.3691 46.9722 24.9958 46.063 24.0746 45.6175C23.3942 45.2863 22.5694 45.1117 21.8047 45.1057C16.3017 45.0635 10.8046 45.0816 5.30157 45.0876C4.94032 45.0876 4.57907 45.1057 4.22384 45.1719C2.83302 45.4308 1.80948 46.7253 1.96 48.0619ZM13.6465 43.2212C16.3378 43.2212 19.0291 43.2272 21.7265 43.2212C22.8343 43.2212 23.4605 42.6793 23.4665 41.746C23.4785 40.7707 22.8584 40.2348 21.7024 40.2288C19.7576 40.2228 17.8069 40.2228 15.8622 40.2228C12.4242 40.2228 8.98634 40.2288 5.54843 40.2167C4.83195 40.2167 4.25997 40.4154 3.96494 41.1018C3.50134 42.1615 4.22384 43.2091 5.42801 43.2151C8.1675 43.2332 10.907 43.2212 13.6465 43.2212Z" fill="black"/>
</svg>
