<svg width="50" height="50" viewBox="0 0 50 50" fill="none" xmlns="http://www.w3.org/2000/svg">
<path d="M17.1118 26.5856C16.4735 27.1335 15.8653 27.5489 15.9917 28.6206C16.1844 30.2222 15.2209 31.6612 13.7274 32.2873C12.1918 32.9316 10.7285 32.7269 9.52407 31.5468C6.98278 29.0602 4.48365 26.5254 1.96644 24.0147C1.65932 23.7076 1.34015 23.4186 1.0511 23.0935C-0.0388872 21.8592 -0.297834 20.4323 0.352544 18.9391C0.996899 17.4459 2.2013 16.5669 3.86338 16.6632C4.73657 16.7114 5.27253 16.4043 5.84462 15.8263C9.30728 12.3222 12.8121 8.85415 16.2747 5.35001C16.5036 5.1152 16.6481 4.68772 16.6421 4.35055C16.5759 2.45398 17.3286 1.06316 18.8823 0.352701C20.3938 -0.339698 22.0318 -0.00855046 23.3627 1.31002C26.0605 3.98328 28.7524 6.66256 31.4261 9.3599C32.6908 10.6303 32.9919 12.3463 32.2813 13.7913C31.4924 15.4048 29.9989 16.1755 28.1201 15.9708C27.277 15.8805 27.1204 16.7114 26.5001 17.0786C27.6443 17.8132 28.3128 18.7043 28.1622 19.9988C28.114 20.4142 28.0237 20.8898 27.7888 21.215C27.4335 21.7027 27.5239 21.9676 27.9454 22.3288C30.5168 24.5385 33.0641 26.7722 35.6175 28.9999C39.7124 32.5703 43.8014 36.1467 47.8963 39.711C49.6909 41.2765 50.3654 43.2393 49.8113 45.5392C49.2935 47.6947 47.8783 49.1397 45.7585 49.7418C43.5846 50.3559 41.5672 49.8863 40.0135 48.2065C38.0925 46.1233 36.2678 43.9497 34.407 41.8123C30.3482 37.1582 26.2954 32.4981 22.2365 27.8379C22.0318 27.6031 21.8873 27.3683 21.4778 27.6151C19.8217 28.6026 18.4848 28.3256 17.3346 26.8204C17.2744 26.7481 17.2021 26.6819 17.1118 26.5856ZM14.8776 25.9112C18.5691 22.2265 22.2486 18.5598 25.8257 14.9894C23.1218 12.2559 20.3818 9.48634 17.7501 6.83114C14.1008 10.4677 10.4214 14.1344 6.74792 17.7951C9.42772 20.4684 12.1617 23.1958 14.8776 25.9112ZM33.6422 38.1215C35.1598 36.6284 36.6292 35.1713 38.1106 33.7143C38.0985 33.6842 38.0865 33.636 38.0504 33.6059C34.1662 30.2101 30.288 26.8084 26.3857 23.4307C26.2593 23.3223 25.8377 23.3644 25.6932 23.4969C24.9826 24.1411 24.3503 24.8696 23.6337 25.5139C23.188 25.9173 23.2121 26.1882 23.5975 26.6217C25.8196 29.1384 28.0177 31.6852 30.2217 34.22C31.378 35.5326 32.5282 36.8451 33.6422 38.1215ZM37.5144 42.5047C37.689 42.7395 37.7432 42.8178 37.8035 42.8901C38.9175 44.1785 40.0196 45.479 41.1457 46.7494C42.6692 48.4714 45.2286 48.5978 46.8726 47.0625C48.5287 45.5152 48.6009 42.9623 46.9328 41.3487C45.6562 40.1205 44.2771 38.9946 42.9161 37.8566C42.7897 37.7483 42.4043 37.7663 42.2718 37.8747C41.7298 38.3443 41.242 38.8802 40.7301 39.3799C39.6763 40.4215 38.6104 41.4511 37.5144 42.5047ZM20.8214 1.86394C19.6591 1.87598 19.0268 2.25529 18.6715 3.01994C18.3222 3.77857 18.3764 4.56128 18.9726 5.16337C21.7728 7.99919 24.5851 10.823 27.4275 13.6167C28.2646 14.4415 29.475 14.3452 30.2579 13.5143C30.9986 12.7316 30.9865 11.5455 30.1736 10.7266C27.4516 7.98113 24.7236 5.24766 21.9656 2.53827C21.5982 2.17702 21.0502 2.00242 20.8214 1.86394ZM1.85202 20.7935C2.02064 21.0705 2.2555 21.6605 2.65897 22.076C5.28457 24.7492 7.9463 27.3864 10.596 30.0295C11.5414 30.9748 12.7579 31.035 13.601 30.18C14.426 29.3431 14.3778 28.151 13.4685 27.2238C12.8783 26.6217 12.2761 26.0377 11.68 25.4416C9.55418 23.3223 7.43443 21.1969 5.30866 19.0776C4.65828 18.4333 3.88747 18.2888 3.06245 18.638C2.28561 18.9692 1.91224 19.6134 1.85202 20.7935ZM19.7374 26.4712C20.1108 26.2304 20.442 26.0919 20.6829 25.8571C22.4112 24.1592 24.1154 22.4432 25.8257 20.7273C26.4279 20.1252 26.4941 19.487 26.0244 19.0354C25.5607 18.5959 24.9886 18.6561 24.3864 19.2462C22.9893 20.631 21.6042 22.0218 20.2192 23.4126C19.8157 23.822 19.34 24.1833 19.0389 24.6589C18.8522 24.9479 18.816 25.4416 18.9244 25.7728C19.0148 26.0437 19.4182 26.2123 19.7374 26.4712ZM41.1216 36.2671C40.7362 35.9239 40.3809 35.5627 39.9714 35.2797C39.8268 35.1773 39.4475 35.1894 39.327 35.3038C37.966 36.6224 36.6231 37.965 35.3043 39.3197C35.1899 39.4401 35.1357 39.7833 35.22 39.9097C35.5332 40.3493 35.9186 40.7346 36.2739 41.144C37.9118 39.4943 39.4836 37.9229 41.1216 36.2671Z" fill="black"/>
<path d="M24.8561 43.5403C25.5908 44.4795 26.4338 45.2321 26.8373 46.1774C27.2227 47.0805 27.1986 48.1763 27.2348 49.1939C27.2408 49.4347 26.7891 49.7478 26.488 49.9164C26.2833 50.0307 25.9701 49.9585 25.7052 49.9585C17.5995 49.9585 9.49994 49.9585 1.3943 49.9645C0.220012 49.9645 0.0513946 49.7598 0.00924054 48.5677C-0.0570016 46.641 0.629507 45.1057 2.23739 43.9918C2.36987 43.9015 2.45418 43.5222 2.37589 43.3777C1.12934 41.0717 2.7613 38.2841 5.65789 38.3202C10.9211 38.3804 16.1904 38.4466 21.4536 38.3081C24.1997 38.2359 26.4098 40.7887 24.8561 43.5403ZM1.96037 48.0619C9.77093 48.0619 17.5815 48.0619 25.4523 48.0619C25.374 46.9722 25.0006 46.063 24.0792 45.6175C23.3987 45.2863 22.5737 45.1117 21.8089 45.1057C16.3048 45.0635 10.8067 45.0816 5.30259 45.0876C4.94127 45.0876 4.57995 45.1057 4.22465 45.1719C2.83357 45.4308 1.80982 46.7253 1.96037 48.0619ZM13.6491 43.2212C16.3409 43.2212 19.0328 43.2272 21.7306 43.2212C22.8387 43.2212 23.465 42.6793 23.471 41.746C23.4831 40.7707 22.8628 40.2348 21.7066 40.2288C19.7614 40.2228 17.8103 40.2228 15.8652 40.2228C12.4266 40.2228 8.98806 40.2288 5.54949 40.2167C4.83287 40.2167 4.26078 40.4154 3.96571 41.1018C3.50201 42.1615 4.22465 43.2091 5.42905 43.2151C8.16907 43.2332 10.9091 43.2212 13.6491 43.2212Z" fill="black"/>
</svg>
