<svg width="50" height="50" viewBox="0 0 50 50" fill="none" xmlns="http://www.w3.org/2000/svg">
<g clip-path="url(#clip0_152_2)">
<path d="M41.7942 50C41.1441 50 40.5025 49.7496 40.0128 49.2743L32.288 41.7798H15.3188V38.3848H32.6173C33.2758 38.3848 33.9047 38.6394 34.3902 39.0977L40.9879 45.4973V40.9608C40.9879 39.5391 42.1361 38.3848 43.5502 38.3848C45.2471 38.3848 46.6274 36.9971 46.6274 35.2911V15.3963C46.6274 13.6946 45.2471 12.3069 43.5544 12.3069V8.91187C47.1129 8.91187 50.0044 11.8188 50.0044 15.3963V35.2911C50.0044 38.5927 47.5392 41.3257 44.3649 41.7289V47.424C44.3649 48.4595 43.7528 49.3931 42.7988 49.7963C42.4738 49.9363 42.1318 50 41.7942 50Z" fill="black"/>
<path d="M8.206 41.0881C7.8683 41.0881 7.5306 41.0202 7.20557 40.8844C6.2558 40.4812 5.64373 39.5476 5.64373 38.5121V32.817C2.46518 32.4139 0 29.6809 0 26.3792V6.48447C0 2.90698 2.89152 0 6.44998 0H34.6855C38.244 0 41.1355 2.90698 41.1355 6.48447V26.3792C41.1355 29.9567 38.2398 32.8679 34.6813 32.8679H17.7121L9.98312 40.3667C9.49768 40.8377 8.85606 41.0881 8.206 41.0881ZM6.44998 3.39501C4.75728 3.39501 3.37695 4.78272 3.37695 6.48447V26.3792C3.37695 28.0852 4.75728 29.4729 6.4542 29.4729C7.8683 29.4729 9.01646 30.6272 9.01646 32.0489V36.5855L15.6015 30.1944C16.0912 29.7233 16.7201 29.4729 17.3829 29.4729H34.6813C36.3782 29.4729 37.7586 28.0852 37.7586 26.3792V6.48447C37.7586 4.78272 36.3782 3.39501 34.6855 3.39501H6.44998Z" fill="black"/>
<path d="M23.1362 16.8732H10.5022C9.58619 16.8732 8.84326 16.1263 8.84326 15.2054C8.84326 14.2845 9.58619 13.5376 10.5022 13.5376H23.1362C24.0522 13.5376 24.7951 14.2845 24.7951 15.2054C24.7951 16.1263 24.0522 16.8732 23.1362 16.8732Z" fill="black"/>
<path d="M29.4936 10.6688H10.4983C9.58229 10.6688 8.83936 9.92195 8.83936 9.00105C8.83936 8.08015 9.58229 7.33325 10.4983 7.33325H29.4936C30.4096 7.33325 31.1526 8.08015 31.1526 9.00105C31.1526 9.92195 30.4096 10.6688 29.4936 10.6688Z" fill="black"/>
</g>
<defs>
<clipPath id="clip0_152_2">
<rect width="50" height="50" fill="white"/>
</clipPath>
</defs>
</svg>
