<svg width="119" height="118" viewBox="0 0 119 118" fill="none" xmlns="http://www.w3.org/2000/svg">
<path d="M36.29 94.45H77.27C77.81 94.45 78.32 94.66 78.71 95.03L97.58 113.24C98.89 114.51 101.09 113.58 101.09 111.75V96.52C101.09 95.38 102.02 94.45 103.16 94.45C109.4 94.45 114.45 89.4 114.45 83.16V36.28C114.45 30.05 109.4 25 103.17 25" stroke="black" stroke-width="8" stroke-miterlimit="10"/>
<path d="M93.45 15.28V62.16C93.45 68.4 88.4 73.45 82.16 73.45H41.18C40.64 73.45 40.13 73.66 39.74 74.03L20.87 92.24C19.56 93.51 17.36 92.58 17.36 90.75V75.52C17.36 74.38 16.43 73.45 15.29 73.45C9.05 73.45 4 68.4 4 62.16V15.28C4 9.05 9.05 4 15.28 4H82.17C88.4 4 93.45 9.05 93.45 15.28Z" stroke="black" stroke-width="8" stroke-miterlimit="10"/>
<path d="M54.8102 39.7599H24.8802C22.7102 39.7599 20.9502 37.9999 20.9502 35.8299C20.9502 33.6599 22.7102 31.8999 24.8802 31.8999H54.8102C56.9802 31.8999 58.7402 33.6599 58.7402 35.8299C58.7402 37.9999 56.9802 39.7599 54.8102 39.7599Z" fill="black"/>
<path d="M69.8699 25.14H24.8699C22.6999 25.14 20.9399 23.38 20.9399 21.21C20.9399 19.04 22.6999 17.28 24.8699 17.28H69.8699C72.0399 17.28 73.7999 19.04 73.7999 21.21C73.7999 23.38 72.0399 25.14 69.8699 25.14Z" fill="black"/>
</svg>
