<svg width="45" height="45" viewBox="0 0 45 45" fill="none" xmlns="http://www.w3.org/2000/svg">
<path d="M22.5668 0.447359C24.5893 0.447359 26.6108 0.443709 28.6333 0.448575C30.8416 0.454658 32.2957 2.07262 32.3011 4.52145C32.3044 5.70146 32.3044 5.70146 33.3802 5.70146C36.9321 5.70268 40.4841 5.70268 44.0361 5.70511C44.164 5.70511 44.2952 5.6893 44.4176 5.71849C44.7773 5.80365 45.0156 6.03722 44.9992 6.47151C44.9828 6.90337 44.7434 7.13938 44.364 7.15154C43.7813 7.17101 43.1975 7.17831 42.6159 7.15641C42.2541 7.14303 42.1032 7.29022 42.0507 7.69532C41.5467 11.5845 41.0285 15.4713 40.5125 19.3592C39.5362 26.713 38.5611 34.068 37.575 41.4206C37.4951 42.0179 37.4241 42.6444 37.2065 43.1846C36.5932 44.7028 35.4748 45.4363 33.9891 45.44C29.5986 45.4497 25.2092 45.4448 20.8187 45.4448C17.6669 45.4448 14.5162 45.446 11.3643 45.4448C9.08053 45.4448 7.8386 44.2052 7.50953 41.6846C6.75081 35.8709 5.96914 30.0608 5.19621 24.2496C4.47467 18.8191 3.74219 13.3898 3.0447 7.95566C2.96271 7.31942 2.78013 7.08099 2.19525 7.15154C1.69126 7.21237 1.17634 7.16127 0.666885 7.15154C0.253637 7.14424 0.00109675 6.88999 3.505e-06 6.44475C-0.00108974 6.00194 0.253637 5.72823 0.661419 5.71849C1.46277 5.69903 2.26412 5.7039 3.06547 5.70268C6.0894 5.70146 9.11332 5.68808 12.1372 5.71485C12.6544 5.71971 12.803 5.53602 12.7681 4.98737C12.6664 3.43754 13.0436 2.1006 14.2341 1.15415C14.8485 0.665114 15.5318 0.446142 16.2828 0.447359C18.3775 0.451008 20.4722 0.447359 22.5668 0.447359ZM4.46592 7.38755C4.48014 7.5907 4.48342 7.7306 4.50091 7.86807C5.28695 13.8192 6.07191 19.7716 6.86232 25.7228C7.56747 31.0328 8.27261 36.3429 8.99197 41.6505C9.20406 43.2137 9.85783 43.8098 11.2845 43.8123C13.1245 43.8159 14.9633 43.8135 16.8032 43.8135C22.5045 43.8123 28.2047 43.8147 33.906 43.8074C35.1337 43.8062 35.8793 43.1286 36.0488 41.8719C36.4992 38.5278 36.9387 35.1799 37.3825 31.8345C38.2396 25.3834 39.0978 18.9322 39.9539 12.4799C40.1769 10.8011 40.3944 9.12107 40.6218 7.38755C28.5524 7.38755 16.543 7.38755 4.46592 7.38755ZM22.545 5.70268C25.0212 5.70268 27.4974 5.70755 29.9747 5.70025C30.9182 5.6966 30.8362 5.84744 30.8394 4.71244C30.8438 2.98135 30.107 2.06775 28.6344 2.06045C24.5555 2.0422 20.4765 2.05193 16.3976 2.05437C15.7942 2.05437 15.2596 2.24536 14.8113 2.73075C14.2407 3.34995 14.2505 4.12608 14.2177 4.92655C14.1926 5.52994 14.3237 5.72701 14.8977 5.71849C17.4461 5.682 19.9955 5.70268 22.545 5.70268Z" fill="black"/>
<path d="M28.0857 13.9058C28.5011 13.9058 28.8411 13.9058 29.2161 13.9058C29.2161 14.3729 29.2347 14.8108 29.2128 15.2464C28.8947 21.6574 28.57 28.0684 28.2475 34.4794C28.1808 35.7932 28.0868 37.107 28.0518 38.4221C28.031 39.2031 27.5445 38.9172 27.1958 38.961C26.7093 39.0218 26.7946 38.6447 26.811 38.3211C27.128 32.0731 27.4462 25.8239 27.7621 19.5759C27.8441 17.958 27.9184 16.34 28.0015 14.722C28.0146 14.4629 28.054 14.2038 28.0857 13.9058Z" fill="black"/>
<path d="M18.2722 38.9219C17.8371 38.9219 17.4676 38.9219 17.0499 38.9219C16.6279 30.5791 16.2081 22.2752 15.7861 13.9214C16.2114 13.9214 16.5656 13.9214 17.0073 13.9214C17.4282 22.2374 17.8491 30.5559 18.2722 38.9219Z" fill="black"/>
</svg>
