<svg width="35" height="50" viewBox="0 0 35 50" fill="none" xmlns="http://www.w3.org/2000/svg">
<path d="M17.3508 0C7.78348 0 0 7.78461 0 17.3522C0 26.5619 15.7427 48.0789 16.413 48.99L17.0386 49.8414C17.1118 49.9415 17.2283 50 17.3508 50C17.4753 50 17.591 49.9415 17.665 49.8414L18.2902 48.99C18.9609 48.0789 34.7032 26.5619 34.7032 17.3522C34.7032 7.78461 26.9185 0 17.3508 0ZM17.3508 11.1367C20.7789 11.1367 23.5664 13.9243 23.5664 17.3522C23.5664 20.7783 20.7787 23.5678 17.3508 23.5678C13.9248 23.5678 11.1353 20.7783 11.1353 17.3522C11.1353 13.9243 13.9247 11.1367 17.3508 11.1367Z" fill="black"/>
</svg>
