<svg width="74" height="50" viewBox="0 0 74 50" fill="none" xmlns="http://www.w3.org/2000/svg">
<path d="M64.6539 0H8.9962C4.03592 0 0 4.03592 0 8.9962V41.0038C0 45.9641 4.03592 50 8.9962 50H64.6539C69.6142 50 73.6501 45.9641 73.6501 41.0038V8.99718C73.6511 4.03592 69.6152 0 64.6539 0ZM60.258 5.869L36.8251 20.966L13.3921 5.869H60.258ZM64.6539 44.132H8.9962C7.27169 44.132 5.869 42.7283 5.869 41.0048V9.16347L35.0145 27.9052C35.0536 27.9296 35.0957 27.9462 35.1358 27.9687C35.1778 27.9922 35.2209 28.0147 35.2639 28.0362C35.4899 28.1526 35.7227 28.2465 35.9604 28.3082C35.9848 28.315 36.0093 28.3179 36.0337 28.3238C36.2949 28.3854 36.559 28.4236 36.8231 28.4236H36.8251C36.827 28.4236 36.829 28.4236 36.829 28.4236C37.0931 28.4236 37.3572 28.3864 37.6184 28.3238C37.6428 28.3179 37.6673 28.315 37.6917 28.3082C37.9294 28.2465 38.1612 28.1526 38.3882 28.0362C38.4312 28.0147 38.4742 27.9922 38.5163 27.9687C38.5564 27.9462 38.5985 27.9296 38.6376 27.9052L67.7831 9.16347V41.0038C67.7821 42.7283 66.3784 44.132 64.6539 44.132Z" fill="black"/>
</svg>
