<svg width="190" height="190" viewBox="0 0 190 190" fill="none" xmlns="http://www.w3.org/2000/svg">
<path d="M3.08709 190.007C2.4114 189.619 1.66565 189.314 1.07546 188.822C0.333276 188.205 0.039962 187.3 0.00196204 186.331C-0.00160046 186.251 0.000777005 186.173 0.000777005 186.093C0.000777005 155.776 0.000774541 125.459 0.00196204 95.1425C0.00196204 93.1143 1.27853 91.5705 3.21059 91.2546C3.50153 91.2071 3.80196 91.2083 4.09765 91.2083C15.3183 91.2059 26.539 91.2048 37.7585 91.2071C40.7213 91.2083 42.4681 93.6581 41.5241 96.4725C41.0016 98.0281 40.4696 99.5814 39.9732 101.145C38.6765 105.229 40.1549 109.647 43.6378 112.153C47.078 114.629 51.752 114.62 55.1934 112.13C58.6431 109.635 60.1156 105.218 58.8319 101.163C58.3308 99.5802 57.7869 98.0091 57.2608 96.4345C56.3346 93.6617 58.0933 91.2083 61.0205 91.2071C70.8161 91.2048 80.6118 91.2059 90.4075 91.2059C90.6426 91.2059 90.8766 91.2059 91.2008 91.2059C91.2008 90.9138 91.2008 90.6656 91.2008 90.4174C91.2008 80.5826 91.1984 70.7465 91.2031 60.9116C91.2043 58.5817 93.0022 56.8444 95.2668 57.0285C95.8855 57.0784 96.4958 57.3099 97.0979 57.4976C98.7402 58.0082 100.349 58.6494 102.019 59.0425C106.079 59.9961 110.254 58.2006 112.487 54.6618C114.672 51.1979 114.463 46.6343 111.971 43.4067C109.391 40.0639 105.072 38.7078 101.082 39.9986C99.4634 40.5211 97.8555 41.0744 96.237 41.5946C93.666 42.4223 91.2067 40.6469 91.2055 37.9442C91.1984 26.5857 91.1996 15.2261 91.2043 3.86769C91.2055 1.66369 92.8229 0.0415634 95.0186 0.00831337C95.1373 0.00593837 95.2561 0.00712471 95.3748 0.00712471C125.534 0.00712471 155.693 0.0095 185.85 0C187.425 0 188.671 0.539125 189.49 1.90712C189.71 2.27406 189.833 2.698 190.001 3.09581C190.001 64.3708 190.001 125.646 190.001 186.921C189.588 187.62 189.278 188.419 188.73 188.988C188.268 189.467 187.53 189.678 186.913 190.008C125.637 190.007 64.3621 190.007 3.08709 190.007ZM98.8257 123.897C104.34 122.32 109.503 123.013 114.178 126.316C118.872 129.632 121.366 134.244 121.578 139.992C121.767 145.098 120.062 149.55 116.35 153.088C111.366 157.838 105.461 159.139 98.8388 157.341C98.8388 165.708 98.8388 174.031 98.8388 182.354C126.709 182.354 154.54 182.354 182.357 182.354C182.357 154.485 182.357 126.669 182.357 98.8071C182.079 98.8071 181.845 98.8071 181.611 98.8071C171.814 98.8071 162.019 98.8095 152.222 98.8059C149.297 98.8047 147.536 96.3502 148.462 93.5774C148.988 92.0016 149.532 90.4317 150.033 88.8476C151.317 84.7923 149.843 80.3759 146.392 77.881C142.95 75.392 138.276 75.3837 134.835 77.8608C131.353 80.3688 129.878 84.7839 131.174 88.8713C131.659 90.3984 132.177 91.9149 132.683 93.4337C133.676 96.4167 131.969 98.8047 128.834 98.8047C119.077 98.8059 109.32 98.8047 99.5632 98.8047C99.3173 98.8047 99.0715 98.8047 98.8245 98.8047C98.8257 107.223 98.8257 115.531 98.8257 123.897ZM91.2008 182.388C91.2008 182.076 91.2008 181.823 91.2008 181.569C91.2008 171.753 91.1972 161.937 91.2031 152.12C91.2043 149.344 93.653 147.58 96.3011 148.439C97.9006 148.958 99.4895 149.505 101.09 150.018C105.174 151.328 109.613 149.87 112.119 146.408C114.623 142.949 114.622 138.261 112.116 134.8C109.611 131.341 105.171 129.885 101.086 131.196C99.5608 131.685 98.0455 132.207 96.522 132.703C93.5603 133.667 91.202 131.959 91.2008 128.85C91.1996 119.093 91.1996 109.337 91.1996 99.5802C91.1996 99.3332 91.1996 99.0862 91.1996 98.8309C82.7909 98.8309 74.482 98.8309 66.1125 98.8309C67.7286 104.502 66.9592 109.784 63.4513 114.513C59.9422 119.243 55.1471 121.614 49.2523 121.594C44.272 121.577 39.9958 119.745 36.6363 116.065C32.112 111.107 30.896 105.307 32.6689 98.8451C24.303 98.8451 15.981 98.8451 7.64828 98.8451C7.64828 126.712 7.64828 154.541 7.64828 182.388C35.4999 182.388 63.3017 182.388 91.2008 182.388ZM123.829 91.1846C121.861 83.0763 123.901 76.3088 130.722 71.5124C136.576 67.3966 143.073 67.1044 149.215 70.7311C157.008 75.3326 159.401 82.4517 157.406 91.1703C165.694 91.1703 174.017 91.1703 182.351 91.1703C182.351 63.3032 182.351 35.473 182.351 7.64869C154.485 7.64869 126.668 7.64869 98.8376 7.64869C98.8376 16.0075 98.8376 24.3259 98.8376 32.6954C104.228 31.1576 109.284 31.787 113.907 34.9268C118.545 38.0772 121.12 42.5161 121.547 48.1068C121.911 52.8556 120.609 57.1746 117.429 60.7418C112.401 66.3801 106.113 68.0604 98.8483 66.1627C98.8483 74.5334 98.8483 82.8531 98.8483 91.1846C107.206 91.1846 115.514 91.1846 123.829 91.1846Z" fill="black"/>
<path d="M98.8257 123.897C98.8257 115.531 98.8257 107.223 98.8257 98.8084C99.0727 98.8084 99.3185 98.8084 99.5643 98.8084C109.321 98.8084 119.079 98.8096 128.835 98.8084C131.97 98.8084 133.678 96.4203 132.684 93.4373C132.177 91.9173 131.66 90.4009 131.176 88.8749C129.879 84.7875 131.354 80.3724 134.837 77.8644C138.277 75.3873 142.951 75.3956 146.393 77.8846C149.844 80.3795 151.318 84.7959 150.034 88.8512C149.533 90.4353 148.989 92.0052 148.463 93.581C147.537 96.3526 149.298 98.8084 152.223 98.8096C162.02 98.8119 171.815 98.8107 181.612 98.8107C181.846 98.8107 182.08 98.8107 182.358 98.8107C182.358 126.674 182.358 154.49 182.358 182.357C154.541 182.357 126.711 182.357 98.8399 182.357C98.8399 174.033 98.8399 165.712 98.8399 157.345C105.464 159.143 111.368 157.841 116.351 153.091C120.062 149.554 121.767 145.102 121.579 139.996C121.367 134.248 118.872 129.636 114.179 126.319C109.503 123.012 104.339 122.318 98.8257 123.897Z" fill="white"/>
<path d="M91.2009 182.388C63.3018 182.388 35.5001 182.388 7.64844 182.388C7.64844 154.541 7.64844 126.711 7.64844 98.8451C15.9823 98.8451 24.3043 98.8451 32.6691 98.8451C30.8949 105.307 32.1109 111.107 36.6365 116.065C39.9959 119.745 44.2721 121.577 49.2525 121.594C55.1484 121.614 59.9436 119.243 63.4514 114.513C66.9593 109.784 67.7288 104.502 66.1126 98.8308C74.4833 98.8308 82.7911 98.8308 91.1998 98.8308C91.1998 99.0861 91.1998 99.3331 91.1998 99.5801C91.1998 109.337 91.1998 119.093 91.2009 128.85C91.2009 131.958 93.5605 133.667 96.5221 132.703C98.0457 132.207 99.5598 131.685 101.086 131.196C105.172 129.885 109.611 131.341 112.116 134.8C114.622 138.261 114.623 142.949 112.119 146.408C109.613 149.87 105.174 151.328 101.09 150.018C99.4897 149.505 97.9008 148.956 96.3012 148.439C93.6543 147.58 91.2045 149.343 91.2033 152.12C91.1974 161.936 91.2009 171.752 91.2009 181.569C91.2009 181.823 91.2009 182.076 91.2009 182.388Z" fill="white"/>
<path d="M123.828 91.1846C115.513 91.1846 107.206 91.1846 98.8481 91.1846C98.8481 82.8519 98.8481 74.5322 98.8481 66.1627C106.113 68.0604 112.401 66.3801 117.429 60.7418C120.609 57.1757 121.911 52.8568 121.547 48.1068C121.118 42.5161 118.545 38.0772 113.907 34.9267C109.285 31.787 104.227 31.1576 98.8374 32.6954C98.8374 24.3271 98.8374 16.0087 98.8374 7.64868C126.668 7.64868 154.485 7.64868 182.351 7.64868C182.351 35.473 182.351 63.3032 182.351 91.1703C174.017 91.1703 165.694 91.1703 157.406 91.1703C159.401 82.4517 157.008 75.3314 149.215 70.731C143.073 67.1044 136.576 67.3966 130.722 71.5124C123.901 76.3076 121.861 83.0751 123.828 91.1846Z" fill="white"/>
</svg>
