<svg width="51" height="50" viewBox="0 0 51 50" fill="none" xmlns="http://www.w3.org/2000/svg">
<path d="M13.84 20.5499C15.5291 23.5968 17.4758 26.5209 20.0033 29.1875C22.5389 31.8703 25.6921 34.3119 29.7737 36.3977C30.0764 36.5449 30.3627 36.5449 30.6203 36.4427C31.0088 36.2955 31.4055 35.9724 31.7941 35.5838C32.0967 35.2812 32.473 34.7986 32.8656 34.271C34.4361 32.2057 36.3787 29.6414 39.1229 30.9256C39.1843 30.9542 39.2293 30.987 39.2906 31.0115L48.4435 36.275C48.4721 36.2914 48.5048 36.32 48.5294 36.3364C49.7359 37.1666 50.2348 38.4467 50.2471 39.8985C50.2471 41.375 49.7031 43.0354 48.9056 44.4382C47.8505 46.2908 46.2964 47.5178 44.505 48.3275C42.7996 49.1128 40.902 49.534 39.0779 49.804C36.2151 50.2252 33.5322 49.9553 30.788 49.1128C28.1051 48.2826 25.4018 46.9125 22.449 45.0885L22.2322 44.9494C20.8785 44.1028 19.4144 43.199 17.9789 42.1316C12.7276 38.1645 7.3741 32.4347 3.88553 26.1283C0.96135 20.8362 -0.633657 15.1228 0.237462 9.6793C0.720054 6.69377 2.00015 3.97817 4.23316 2.18685C6.17989 0.616385 8.80142 -0.242465 12.1959 0.0601776C12.5845 0.088806 12.9321 0.313743 13.1161 0.649103L18.9849 10.5709C19.8438 11.6833 19.9501 12.7875 19.4798 13.8918C19.0913 14.7956 18.306 15.6299 17.2345 16.407C16.9196 16.6769 16.5433 16.9509 16.1466 17.2372C14.8338 18.1901 13.3411 19.2902 13.8523 20.5826L13.84 20.5499Z" fill="black"/>
</svg>
