<svg width="84" height="78" viewBox="0 0 84 78" fill="none" xmlns="http://www.w3.org/2000/svg">
<g clip-path="url(#clip0_98_2)">
<path d="M4.47999 39.4199C5.35999 38.4999 6.21999 37.5799 7.10999 36.6799C8.95999 34.8199 10.81 32.9599 12.67 31.1199C14.84 28.9699 17.81 28.9799 19.99 31.1499C23.77 34.9199 27.54 38.6999 31.32 42.4699C31.5 42.6499 31.65 42.8699 31.85 43.1099C32.1 42.8799 32.28 42.7399 32.44 42.5799C39.1 35.9699 45.75 29.3699 52.4 22.7499C54.61 20.5499 57.56 20.5199 59.76 22.7199C64.63 27.5699 69.48 32.4399 74.35 37.2999C74.98 37.9299 75.3 38.6499 75.05 39.5399C74.83 40.3299 74.29 40.8399 73.5 41.0399C72.6 41.2599 71.91 40.8899 71.28 40.2599C67.93 36.8899 64.57 33.5399 61.21 30.1799C59.84 28.8099 58.47 27.4399 57.1 26.0699C56.15 25.1199 56.05 25.1199 55.12 26.0499C45.63 35.4699 36.15 44.8999 26.66 54.3199C26.54 54.4399 26.43 54.5599 26.31 54.6699C25.41 55.4699 24.1 55.4499 23.3 54.6299C22.49 53.7999 22.48 52.5199 23.35 51.6399C24.97 49.9899 26.63 48.3699 28.28 46.7399C28.48 46.5399 28.72 46.3899 28.98 46.1799C28.72 45.8999 28.57 45.7199 28.41 45.5599C24.65 41.7999 20.89 38.0399 17.13 34.2799C16.38 33.5299 16.27 33.5299 15.53 34.2699C11.94 37.8599 8.34999 41.4599 4.74999 45.0399C4.39999 45.3799 4.25999 45.7299 4.25999 46.2199C4.27999 49.3399 4.26999 52.4599 4.26999 55.5699C4.26999 58.0999 5.67999 59.5299 8.20999 59.5299C20.14 59.5299 32.07 59.5299 44 59.5299C44.28 59.5299 44.57 59.5199 44.85 59.5399C45.97 59.6399 46.81 60.5799 46.79 61.6899C46.77 62.7699 45.94 63.6599 44.85 63.7699C44.69 63.7899 44.52 63.7799 44.35 63.7799C32.21 63.7799 20.06 63.7899 7.91999 63.7799C3.43999 63.7799 0.0199865 60.3499 0.0199865 55.8699C-1.34893e-05 39.8799 -1.34888e-05 23.8899 0.00998651 7.88994C0.00998651 3.43994 3.41999 0.00994141 7.85999 0.00994141C30.49 -5.85937e-05 53.13 -5.85937e-05 75.76 0.00994141C80.21 0.00994141 83.63 3.42994 83.64 7.86994C83.65 19.8199 83.65 31.7799 83.64 43.7299C83.64 45.1699 82.78 46.1199 81.5 46.1099C80.23 46.0999 79.39 45.1599 79.39 43.6999C79.39 31.9099 79.39 20.1299 79.39 8.33994C79.39 5.61994 78.02 4.25994 75.29 4.25994C52.96 4.25994 30.64 4.25994 8.30999 4.25994C5.62999 4.25994 4.25999 5.63994 4.25999 8.31994C4.25999 18.3799 4.25999 28.4499 4.25999 38.5099C4.25999 38.7699 4.25999 39.0199 4.25999 39.2799C4.32999 39.3199 4.39999 39.3699 4.47999 39.4199Z" fill="lightgray"/>
<path d="M67.3601 45.3599C76.3601 45.3699 83.6601 52.6999 83.6401 61.7099C83.6201 70.6699 76.3001 77.9599 67.3201 77.9499C58.3201 77.9399 51.0201 70.6099 51.0401 61.5999C51.0601 52.6399 58.3801 45.3499 67.3601 45.3599ZM67.3201 73.6999C73.9101 73.7099 79.3901 68.3199 79.3901 61.8399C79.3901 55.0399 74.0801 49.6299 67.4001 49.6099C60.8001 49.5899 55.3001 54.9699 55.2901 61.4399C55.2901 68.2699 60.6001 73.6999 67.3201 73.6999Z" fill="lightgray"/>
<path d="M36.86 16.27C36.87 20.57 33.4 24.08 29.1 24.1C24.8 24.12 21.28 20.63 21.27 16.34C21.26 12.04 24.74 8.53003 29.03 8.51003C33.34 8.50003 36.85 11.98 36.86 16.27ZM29.07 19.84C31.03 19.83 32.62 18.24 32.6 16.27C32.59 14.34 31 12.75 29.09 12.75C27.11 12.75 25.53 14.32 25.52 16.28C25.52 18.26 27.11 19.85 29.07 19.84Z" fill="lightgray"/>
<path d="M69.4699 61.3299C69.4699 61.7699 69.4699 62.1999 69.4699 62.6399C69.4699 64.1699 69.4799 65.7099 69.4599 67.2399C69.4499 68.5199 68.5499 69.4399 67.3599 69.4499C66.1399 69.4599 65.2199 68.5299 65.2099 67.2199C65.1999 65.2699 65.2099 63.3099 65.2099 61.1599C64.6999 61.6599 64.3099 62.0399 63.9099 62.4299C63.6099 62.7299 63.3199 63.0499 62.9899 63.3099C62.1299 64.0099 60.9299 63.9399 60.1599 63.1699C59.3899 62.3999 59.2599 61.1399 60.0199 60.3499C61.9699 58.3299 63.9599 56.3399 65.9699 54.3899C66.7499 53.6399 67.9499 53.6699 68.7399 54.4399C70.6999 56.3499 72.6399 58.2799 74.5499 60.2399C75.3699 61.0799 75.2999 62.3799 74.4899 63.1799C73.6899 63.9699 72.4099 63.9899 71.5399 63.2099C71.1899 62.8999 70.8599 62.5499 70.5299 62.2099C70.2299 61.8899 69.9299 61.5699 69.6399 61.2399C69.5899 61.2599 69.5299 61.2999 69.4699 61.3299Z" fill="lightgray"/>
</g>
<defs>
<clipPath id="clip0_98_2">
<rect width="83.65" height="77.96" fill="white"/>
</clipPath>
</defs>
</svg>
