<svg width="50" height="50" viewBox="0 0 50 50" fill="none" xmlns="http://www.w3.org/2000/svg">
<g clip-path="url(#clip0_141_2)">
<path d="M25 0C11.1934 0 0 11.1934 0 25C0 38.8066 11.1934 50 25 50C38.8066 50 50 38.8066 50 25C50 11.1934 38.8066 0 25 0ZM16.8175 4.06338C14.3825 6.71172 12.4542 10.5209 11.275 15.0001H4.8583C7.3417 10.0333 11.6083 6.10586 16.8175 4.06338ZM2.5 25C2.5 22.3634 2.9958 19.8509 3.83418 17.5H10.7184C10.2684 19.8725 10 22.3792 10 25C10 27.6208 10.2684 30.1275 10.7175 32.5H3.83418C2.9958 30.1491 2.5 27.6367 2.5 25ZM4.8583 35H11.275C12.455 39.4792 14.3825 43.2883 16.8175 45.9366C11.6083 43.8941 7.3417 39.9667 4.8583 35ZM23.75 47.3816C19.4717 46.5758 15.7542 41.6941 13.8517 35H23.75V47.3816ZM23.75 32.5H13.2559C12.775 30.14 12.5 27.6175 12.5 25C12.5 22.3825 12.775 19.86 13.2559 17.5H23.75V32.5ZM23.75 15H13.8517C15.7542 8.30586 19.4717 3.42412 23.75 2.61836V15ZM45.1417 15H38.725C37.545 10.5208 35.6175 6.71162 33.1825 4.06328C38.3917 6.10586 42.6583 10.0333 45.1417 15ZM26.25 2.61836C30.5283 3.42422 34.2458 8.30586 36.1483 15H26.25V2.61836ZM26.25 17.5H36.7441C37.225 19.86 37.5 22.3825 37.5 25C37.5 27.6175 37.225 30.14 36.7441 32.5H26.25V17.5ZM26.25 47.3816V35H36.1483C34.2458 41.6941 30.5283 46.5759 26.25 47.3816ZM33.1825 45.9366C35.6175 43.2875 37.545 39.4791 38.725 35H45.1417C42.6583 39.9667 38.3917 43.8941 33.1825 45.9366ZM39.2816 32.5C39.7316 30.1275 40 27.6208 40 25C40 22.3792 39.7316 19.8725 39.2825 17.5H46.1667C47.0042 19.8509 47.5 22.3634 47.5 25C47.5 27.6367 47.0042 30.1491 46.1658 32.5H39.2816Z" fill="black"/>
</g>
<defs>
<clipPath id="clip0_141_2">
<rect width="50" height="50" fill="white"/>
</clipPath>
</defs>
</svg>
